<?xml version="1.0" standalone="no"?>
<!DOCTYPE svg PUBLIC "-//W3C//DTD SVG 20010904//EN"
 "http://www.w3.org/TR/2001/REC-SVG-20010904/DTD/svg10.dtd">
<svg version="1.0" xmlns="http://www.w3.org/2000/svg"
 width="331.000000pt" height="331.000000pt" viewBox="0 0 331.000000 331.000000"
 preserveAspectRatio="xMidYMid meet">

<g transform="translate(0.000000,331.000000) scale(0.100000,-0.100000)"
fill="#000000" stroke="none">
<path d="M150 1649 l0 -150 33 3 c32 3 32 3 35 66 l3 62 54 0 55 0 0 -66 0
-65 33 3 32 3 3 148 3 147 -36 0 -35 0 0 -60 0 -60 -55 0 -55 0 0 60 0 60 -35
0 -35 0 0 -151z"/>
<path d="M980 1667 c0 -147 7 -167 63 -167 22 0 27 5 27 24 0 13 -7 26 -15 30
-12 4 -15 28 -15 126 l0 120 -30 0 -30 0 0 -133z"/>
<path d="M1692 1654 l3 -149 33 -3 32 -3 0 50 0 51 46 0 c37 0 51 5 75 29 38
39 40 97 5 138 -23 26 -30 28 -110 32 l-87 3 3 -148z m148 67 c18 -35 -12 -71
-59 -71 -18 0 -21 6 -21 45 0 45 0 45 35 45 24 0 37 -6 45 -19z"/>
<path d="M2350 1650 l0 -150 29 0 c28 0 30 2 33 48 l3 47 30 -47 c26 -41 35
-48 63 -48 17 0 32 4 32 8 0 5 -16 30 -35 57 -29 41 -33 52 -22 66 6 9 22 31
35 48 l23 31 -34 0 c-28 0 -41 -7 -66 -37 l-30 -38 -1 83 0 82 -30 0 -30 0 0
-150z"/>
<path d="M3090 1750 c0 -47 -1 -50 -19 -40 -32 16 -68 12 -97 -13 -22 -19 -28
-34 -32 -78 -4 -49 -1 -59 23 -87 28 -34 68 -42 106 -22 13 7 19 7 19 0 0 -5
14 -10 30 -10 l30 0 0 150 0 150 -30 0 c-29 0 -30 -1 -30 -50z m-12 -102 c20
-20 15 -76 -8 -88 -42 -23 -85 33 -60 79 12 23 49 28 68 9z"/>
<path d="M1340 1745 c0 -14 -7 -28 -15 -31 -8 -4 -15 -17 -15 -30 0 -15 6 -24
15 -24 12 0 15 -14 15 -63 0 -76 18 -100 72 -95 25 2 34 8 36 25 2 16 -3 22
-20 25 -20 3 -23 9 -26 56 l-3 52 40 0 41 0 0 -58 c0 -76 18 -102 71 -102 35
0 39 3 39 25 0 18 -5 25 -19 25 -23 0 -31 19 -31 71 0 35 3 39 25 39 34 0 37
47 3 52 -17 2 -24 11 -26 31 -3 22 -8 27 -32 27 -24 0 -29 -5 -32 -27 -3 -25
-7 -28 -38 -28 -31 0 -35 3 -38 28 -3 23 -8 27 -33 27 -24 0 -29 -4 -29 -25z"/>
<path d="M470 1693 c-80 -72 -33 -193 74 -193 50 0 66 9 66 36 0 22 -3 23 -43
18 -35 -5 -45 -2 -61 15 l-19 21 71 0 c81 0 86 7 57 75 -24 60 -95 73 -145 28z
m89 -36 c14 -18 4 -27 -31 -27 -26 0 -37 17 -21 33 11 12 40 8 52 -6z"/>
<path d="M1131 1694 c-36 -30 -48 -78 -31 -129 13 -41 52 -65 104 -65 50 0 66
9 66 36 0 23 -3 24 -40 18 -26 -4 -45 -2 -55 6 -28 23 -16 30 50 30 73 0 79 8
50 75 -24 58 -93 72 -144 29z m88 -37 c14 -18 4 -27 -31 -27 -26 0 -37 17 -21
33 11 12 40 8 52 -6z"/>
<path d="M1963 1710 c-15 -6 -23 -18 -23 -34 0 -24 2 -24 31 -14 22 7 37 7 55
-1 36 -16 29 -30 -13 -24 -29 4 -45 0 -65 -17 -70 -55 4 -152 83 -110 13 7 19
7 19 0 0 -5 14 -10 30 -10 l30 0 0 79 c0 44 -3 87 -6 96 -14 36 -90 55 -141
35z m87 -124 c0 -20 -16 -36 -35 -36 -26 0 -40 14 -30 30 6 9 65 15 65 6z"/>
<path d="M2205 1711 c-40 -17 -60 -51 -60 -103 0 -43 4 -53 33 -79 22 -20 43
-29 66 -29 52 0 66 9 66 41 0 27 -1 28 -25 17 -41 -18 -75 3 -75 47 0 45 34
71 74 56 24 -10 26 -9 26 18 0 39 -50 54 -105 32z"/>
<path d="M2598 1713 c-12 -3 -18 -14 -18 -33 0 -28 1 -29 27 -19 33 12 73 4
73 -15 0 -9 -7 -12 -20 -9 -52 14 -100 -21 -100 -72 0 -49 28 -64 115 -62 l70
2 0 83 c0 79 -1 85 -28 108 -27 23 -72 30 -119 17z m80 -140 c-2 -11 -14 -19
-31 -21 -22 -3 -27 1 -27 17 0 17 6 21 31 21 24 0 30 -4 27 -17z"/>
<path d="M2872 1704 c-12 -8 -22 -10 -22 -5 0 6 -13 11 -30 11 l-30 0 0 -105
0 -105 30 0 30 0 0 64 c0 70 17 102 51 93 16 -4 19 1 19 29 0 38 -13 43 -48
18z"/>
<path d="M644 1694 c4 -10 19 -57 33 -106 25 -83 28 -88 54 -88 25 0 29 6 45
58 l17 57 16 -55 c15 -50 19 -55 46 -55 28 0 30 4 61 103 l32 102 -32 0 c-31
0 -33 -3 -47 -57 l-16 -58 -12 45 c-19 71 -19 72 -48 68 -23 -3 -29 -10 -42
-58 l-15 -55 -16 55 c-15 51 -18 55 -49 58 -29 3 -33 1 -27 -14z"/>
<path d="M150 1260 l0 -150 90 0 c83 0 90 1 90 20 0 18 -7 20 -71 20 l-70 0 3
48 3 47 63 3 c45 2 62 7 62 17 0 10 -17 15 -62 17 l-63 3 -3 43 -3 42 70 0
c64 0 71 2 71 20 0 19 -7 20 -90 20 l-90 0 0 -150z"/>
<path d="M1497 1386 c-7 -18 1 -26 25 -26 11 0 18 7 18 20 0 23 -35 28 -43 6z"/>
<path d="M627 1373 c-4 -3 -7 -17 -7 -30 0 -14 -6 -23 -15 -23 -8 0 -15 -7
-15 -15 0 -8 7 -15 15 -15 12 0 15 -14 15 -68 0 -84 17 -115 63 -110 34 3 51
28 19 28 -32 0 -43 24 -40 87 3 55 4 58 31 61 35 4 30 26 -6 30 -22 3 -27 8
-27 33 0 27 -17 39 -33 22z"/>
<path d="M380 1215 c0 -98 1 -105 20 -105 18 0 20 7 20 74 0 66 3 77 22 90 53
37 78 8 78 -90 0 -67 2 -74 20 -74 18 0 20 7 20 76 0 72 -10 111 -34 126 -16
11 -64 10 -87 -2 -13 -7 -19 -7 -19 0 0 5 -9 10 -20 10 -19 0 -20 -7 -20 -105z"/>
<path d="M769 1294 c-19 -21 -24 -36 -24 -81 0 -48 4 -58 28 -79 43 -37 137
-32 137 6 0 16 -4 17 -35 7 -30 -9 -39 -8 -62 9 -48 36 -41 44 36 44 l71 0 0
34 c0 53 -33 86 -84 86 -33 0 -48 -6 -67 -26z m105 -26 c15 -24 5 -30 -48 -26
-46 3 -47 3 -30 26 19 27 61 27 78 0z"/>
<path d="M970 1215 c0 -98 1 -105 20 -105 18 0 20 7 20 73 0 78 9 97 47 97 16
0 23 6 23 20 0 23 -38 28 -58 8 -9 -9 -12 -9 -12 0 0 7 -9 12 -20 12 -19 0
-20 -7 -20 -105z"/>
<path d="M1114 1305 c-3 -6 -3 -69 -2 -140 3 -114 5 -130 21 -133 14 -3 17 4
17 48 0 47 1 50 19 40 99 -53 183 81 110 175 -19 23 -26 25 -91 23 -41 -1 -72
-6 -74 -13z m127 -34 c32 -26 32 -86 0 -113 -44 -35 -91 -2 -91 63 0 28 6 42
22 53 29 21 41 20 69 -3z"/>
<path d="M1350 1215 c0 -98 1 -105 20 -105 18 0 20 7 20 66 0 77 12 104 45
104 18 0 25 5 25 20 0 23 -38 28 -58 8 -9 -9 -12 -9 -12 0 0 7 -9 12 -20 12
-19 0 -20 -7 -20 -105z"/>
<path d="M1500 1215 c0 -98 1 -105 20 -105 19 0 20 7 20 105 0 98 -1 105 -20
105 -19 0 -20 -7 -20 -105z"/>
<path d="M1606 1298 c-31 -44 -15 -72 57 -101 20 -9 37 -23 37 -31 0 -21 -46
-31 -76 -17 -33 15 -34 14 -34 -8 0 -23 19 -31 69 -31 53 0 83 24 79 63 -3 27
-11 36 -53 58 -27 14 -50 32 -50 40 0 18 47 24 75 9 19 -10 21 -9 18 12 -3 20
-9 23 -55 26 -44 3 -53 0 -67 -20z"/>
<path d="M1805 1295 c-20 -20 -25 -34 -25 -77 0 -29 6 -60 13 -69 37 -48 147
-55 147 -9 0 16 -4 17 -30 7 -25 -9 -36 -9 -58 4 -15 8 -28 22 -30 32 -3 15 6
17 63 17 75 0 84 9 65 65 -14 41 -35 55 -85 55 -25 0 -43 -8 -60 -25z m99 -21
c26 -26 18 -34 -34 -34 -54 0 -59 4 -33 32 20 22 46 23 67 2z"/>
</g>
</svg>
