<?xml version="1.0" standalone="no"?>
<!DOCTYPE svg PUBLIC "-//W3C//DTD SVG 20010904//EN"
 "http://www.w3.org/TR/2001/REC-SVG-20010904/DTD/svg10.dtd">
<svg version="1.0" xmlns="http://www.w3.org/2000/svg"
 width="1280.000000pt" height="167.000000pt" viewBox="0 0 1280.000000 167.000000"
 preserveAspectRatio="xMidYMid meet">

<g transform="translate(0.000000,167.000000) scale(0.100000,-0.100000)"
fill="#000000" stroke="none">
<path d="M1403 1390 c-183 -143 -334 -260 -336 -260 -2 0 -14 27 -26 59 -47
129 -153 248 -281 315 -112 59 -160 66 -477 66 l-283 0 0 -596 0 -596 298 4
c334 5 364 10 491 85 118 70 205 181 267 341 8 21 29 7 347 -242 l339 -265
181 143 c100 78 252 197 337 263 l155 121 3 -224 2 -224 385 0 385 0 0 115 0
115 -250 0 -250 0 0 480 0 480 -135 0 -135 0 0 -222 0 -223 -326 -253 -325
-254 -55 44 c-31 23 -65 50 -75 58 -19 15 -2 29 305 269 l325 253 -95 74 -94
74 -319 -250 c-176 -137 -325 -250 -331 -250 -13 0 -140 99 -140 109 0 4 141
117 313 251 171 134 315 246 320 250 7 6 -150 136 -176 145 -7 3 -161 -112
-344 -255z m-808 -71 c71 -26 147 -100 183 -176 24 -52 27 -69 27 -168 0 -102
-2 -114 -29 -168 -35 -68 -108 -140 -174 -169 -38 -18 -73 -22 -189 -26 l-143
-5 0 367 0 366 135 0 c111 0 144 -4 190 -21z"/>
<path d="M3290 975 l0 -595 380 0 380 0 0 115 0 115 -247 2 -248 3 -3 478 -2
477 -130 0 -130 0 0 -595z"/>
<path d="M4062 1533 l3 -38 200 -5 200 -5 5 -550 5 -550 40 0 40 0 3 539 c1
378 6 543 13 553 9 10 54 13 198 13 114 0 191 4 197 10 6 6 9 24 6 40 l-4 30
-455 0 -454 0 3 -37z"/>
<path d="M6505 1558 c-3 -7 -4 -274 -3 -593 l3 -580 45 0 45 0 5 295 c6 326 8
341 73 408 44 46 96 71 164 78 110 12 193 -28 234 -113 23 -46 24 -58 29 -358
l5 -310 33 -3 c62 -6 62 -7 62 282 0 143 -5 290 -10 325 -28 170 -128 255
-300 256 -77 0 -92 -3 -153 -33 -39 -20 -78 -47 -93 -68 -15 -19 -30 -34 -35
-34 -5 0 -10 102 -11 228 l-3 227 -43 3 c-28 2 -44 -1 -47 -10z"/>
<path d="M9087 1564 c-4 -4 -7 -267 -7 -584 0 -636 -3 -604 62 -598 l33 3 0
590 0 590 -40 3 c-23 2 -44 0 -48 -4z"/>
<path d="M11084 1486 c-3 -7 -4 -33 -2 -57 l3 -44 48 -3 47 -3 0 60 0 61 -45
0 c-30 0 -47 -5 -51 -14z"/>
<path d="M5094 1240 c-66 -14 -136 -54 -182 -104 -78 -85 -108 -194 -99 -359
15 -268 148 -407 388 -407 120 0 187 25 255 94 49 50 91 136 78 157 -3 5 -23
9 -44 9 -37 0 -41 -3 -64 -47 -48 -94 -117 -136 -226 -136 -125 0 -225 71
-270 189 -16 45 -27 128 -17 136 1 1 146 5 322 8 l320 5 -3 75 c-7 184 -84
309 -225 362 -59 23 -172 31 -233 18z m213 -98 c76 -40 134 -124 149 -220 12
-73 15 -72 -271 -72 -289 0 -282 -2 -272 81 12 101 86 195 177 224 59 19 166
13 217 -13z"/>
<path d="M5915 1236 c-183 -46 -285 -199 -285 -431 0 -212 90 -363 246 -415
53 -18 83 -21 162 -18 86 3 105 7 164 36 83 41 132 96 157 177 22 71 15 87
-37 83 -33 -3 -37 -7 -52 -52 -36 -110 -121 -168 -244 -169 -140 0 -237 72
-277 205 -18 58 -21 88 -17 181 5 127 28 196 87 255 59 58 105 76 201 77 135
0 207 -47 249 -162 17 -48 17 -48 61 -48 44 0 45 1 42 30 -6 49 -40 117 -80
158 -87 90 -238 127 -377 93z"/>
<path d="M7677 1239 c-58 -14 -113 -45 -156 -91 -23 -23 -44 -39 -47 -35 -3 3
-9 26 -11 51 -6 53 -21 69 -60 64 l-28 -3 -3 -409 c-2 -302 1 -412 10 -423 7
-9 25 -13 47 -11 l36 3 5 290 c5 278 6 292 29 342 30 68 86 118 152 137 128
38 239 1 292 -97 21 -41 22 -53 25 -354 l3 -313 24 -6 c12 -3 34 -4 46 -2 l24
3 0 310 c0 366 -4 385 -89 470 -41 41 -63 55 -112 68 -65 18 -127 20 -187 6z"/>
<path d="M8460 1234 c-142 -38 -238 -146 -271 -304 -16 -78 -7 -242 19 -312
41 -115 110 -187 221 -229 47 -17 72 -20 156 -17 126 5 190 33 264 113 148
163 144 502 -8 654 -95 95 -244 132 -381 95z m242 -101 c108 -61 165 -190 156
-358 -6 -113 -40 -196 -104 -255 -57 -53 -105 -71 -186 -72 -154 -2 -257 100
-289 285 -24 140 21 290 108 367 88 77 213 90 315 33z"/>
<path d="M9595 1236 c-143 -35 -245 -148 -275 -304 -18 -90 -8 -252 19 -323
60 -157 182 -239 355 -239 125 0 216 37 285 116 146 166 140 503 -11 654 -93
93 -236 130 -373 96z m223 -95 c117 -60 182 -205 169 -374 -15 -201 -132 -324
-304 -320 -134 3 -232 94 -269 248 -47 199 36 403 186 456 67 24 160 20 218
-10z"/>
<path d="M10427 1239 c-90 -21 -179 -97 -218 -185 -65 -147 -63 -368 5 -502
36 -71 75 -113 138 -148 50 -27 59 -29 168 -29 109 0 118 2 169 30 30 16 63
44 75 62 38 58 50 44 43 -50 -12 -153 -57 -245 -139 -289 -34 -17 -60 -22
-123 -22 -116 0 -181 37 -210 121 -13 36 -15 38 -57 38 l-43 0 3 -35 c6 -78
73 -149 172 -186 54 -19 197 -23 255 -6 94 27 170 104 205 208 33 95 41 226
38 614 l-3 365 -32 3 c-36 4 -46 -11 -58 -80 -3 -21 -10 -38 -14 -38 -5 0 -21
16 -35 35 -63 83 -212 124 -339 94z m228 -97 c111 -57 164 -191 152 -382 -13
-206 -106 -312 -273 -312 -123 0 -206 58 -249 174 -16 43 -20 77 -20 188 1
116 4 143 23 192 27 67 101 140 159 157 57 16 161 7 208 -17z"/>
<path d="M11570 1235 c-108 -31 -176 -91 -228 -203 -22 -49 -27 -74 -30 -177
-3 -71 1 -144 8 -178 26 -125 107 -234 208 -280 65 -29 217 -36 295 -13 101
29 189 121 204 210 l6 37 -43 -3 c-40 -3 -45 -7 -67 -48 -51 -96 -113 -132
-227 -132 -89 0 -148 25 -206 88 -46 50 -65 88 -81 164 -18 84 -32 80 329 80
l315 0 -5 93 c-8 130 -35 195 -112 272 -43 42 -77 66 -113 78 -72 26 -185 31
-253 12z m199 -81 c70 -21 142 -90 164 -160 48 -149 57 -144 -249 -144 -158 0
-253 4 -266 11 -17 9 -19 17 -13 57 17 114 83 200 177 233 66 23 119 24 187 3z"/>
<path d="M12337 1239 c-172 -40 -247 -209 -151 -336 34 -45 130 -88 263 -118
186 -41 228 -78 219 -193 -5 -71 -22 -95 -87 -125 -56 -24 -188 -27 -242 -3
-56 24 -94 68 -111 128 -15 52 -15 53 -54 53 -37 0 -39 -2 -42 -32 -4 -45 34
-127 78 -167 58 -52 134 -76 244 -76 158 0 245 41 292 137 23 46 26 63 22 116
-11 137 -79 195 -279 238 -194 41 -239 69 -246 156 -9 99 57 148 197 148 120
-1 169 -30 194 -117 13 -42 14 -43 57 -43 l44 0 -3 39 c-6 71 -50 135 -117
169 -64 32 -198 45 -278 26z"/>
<path d="M11087 1224 c-4 -4 -7 -191 -7 -414 0 -449 -2 -434 62 -428 l33 3 0
420 0 420 -40 3 c-23 2 -44 0 -48 -4z"/>
</g>
</svg>
